<svg viewBox="0 0 533.5 544.3" xmlns="http://www.w3.org/2000/svg">
  <path fill="#4285f4" d="M533.5 278.4c0-17.4-1.4-34.1-4.1-50.4H272v95.4h146.9c-6.3 34-25 62.8-53.3 82v68h86.1c50.3-46.3 82-114.5 82-195z"/>
  <path fill="#34a853" d="M272 544.3c72.6 0 133.6-24.1 178.1-65.4l-86.1-68c-23.9 16.1-54.5 25.6-92 25.6-70.8 0-130.8-47.8-152.3-112.1h-89.6v70.6C74.7 475.3 167.6 544.3 272 544.3z"/>
  <path fill="#fbbc04" d="M119.7 324.4c-10.4-30.8-10.4-64.1 0-94.9v-70.6h-89.6c-39.1 77.9-39.1 157.6 0 235.5l89.6-70z"/>
  <path fill="#ea4335" d="M272 107.7c39.5-.6 77.7 14.1 106.7 41.3l79.4-79.4C403.7 24.2 340.7-.3 272 0 167.6 0 74.7 69 30.1 158.9l89.6 70.6C141.2 155.5 201.2 107.7 272 107.7z"/>
</svg>
